<svg fill="none" stroke="currentColor" stroke-linecap="round" stroke-linejoin="round" stroke-width="2" viewBox="0 0 24 24" xmlns="http://www.w3.org/2000/svg"><path d="M0.508 0.123 C 0.328 0.242,0.140 0.447,0.046 0.627 C 0.021 0.675,0.000 0.848,0.000 1.011 C 0.000 1.272,0.014 1.327,0.118 1.483 C 0.183 1.580,1.341 2.764,2.692 4.113 L 5.147 6.567 5.094 6.853 C 5.065 7.011,5.023 7.617,5.001 8.200 C 4.906 10.724,4.673 12.121,4.105 13.574 C 3.673 14.679,3.236 15.377,2.560 16.040 C 2.303 16.293,2.062 16.558,2.026 16.628 C 1.835 16.999,2.078 17.614,2.516 17.872 L 2.700 17.980 9.640 17.990 L 16.580 18.001 19.520 20.936 C 21.137 22.551,22.518 23.900,22.588 23.936 C 22.671 23.977,22.820 24.000,23.011 24.000 C 23.274 24.000,23.327 23.986,23.492 23.877 C 23.672 23.758,23.860 23.553,23.954 23.373 C 24.024 23.240,24.012 22.739,23.936 22.588 C 23.888 22.494,19.965 18.503,17.734 16.280 C 17.679 16.225,14.038 12.591,9.643 8.205 C 5.248 3.820,1.575 0.179,1.480 0.115 C 1.328 0.013,1.273 -0.000,1.001 -0.000 C 0.725 -0.000,0.675 0.012,0.508 0.123 M11.174 1.044 C 10.207 1.156,9.299 1.466,8.449 1.971 C 7.815 2.348,7.629 2.570,7.629 2.947 C 7.629 3.210,7.772 3.514,8.008 3.756 C 8.216 3.967,8.376 4.040,8.629 4.039 C 8.846 4.038,9.013 3.969,9.436 3.706 C 10.168 3.252,11.088 3.000,12.020 3.001 C 14.346 3.001,16.385 4.647,16.882 6.926 C 16.947 7.223,16.971 7.542,17.000 8.480 C 17.057 10.337,17.201 11.440,17.582 12.920 C 17.745 13.552,17.866 13.777,18.119 13.917 C 18.559 14.160,19.402 13.893,19.586 13.452 C 19.669 13.252,19.651 12.958,19.523 12.448 C 19.178 11.077,19.002 9.643,19.000 8.200 C 18.999 7.206,18.908 6.602,18.639 5.790 C 17.798 3.256,15.567 1.410,12.920 1.058 C 12.465 0.997,11.632 0.990,11.174 1.044 M10.800 12.220 L 14.580 16.000 9.873 16.000 L 5.166 16.000 5.460 15.430 C 6.346 13.713,6.814 11.801,6.965 9.290 C 6.993 8.822,7.017 8.440,7.018 8.440 C 7.019 8.440,8.721 10.141,10.800 12.220 M10.032 20.016 C 9.628 20.161,9.298 20.486,9.241 20.794 C 9.140 21.345,9.826 22.253,10.645 22.656 C 11.166 22.912,11.444 22.978,12.000 22.978 C 12.556 22.978,12.834 22.912,13.355 22.656 C 14.177 22.252,14.860 21.345,14.758 20.791 C 14.674 20.331,13.989 19.886,13.505 19.976 C 13.301 20.015,13.128 20.150,12.898 20.450 C 12.653 20.768,12.544 20.861,12.318 20.941 C 12.105 21.016,11.895 21.016,11.682 20.941 C 11.464 20.864,11.337 20.761,11.148 20.507 C 10.911 20.191,10.834 20.116,10.660 20.036 C 10.473 19.949,10.240 19.942,10.032 20.016 " stroke="none" fill-rule="evenodd" fill="black"></path></svg>