<svg fill="none" stroke="currentColor" stroke-linecap="round" stroke-linejoin="round" stroke-width="2" viewBox="0 0 24 24" xmlns="http://www.w3.org/2000/svg"><path d="M1.614 2.057 C 1.377 2.131,1.212 2.261,1.109 2.453 L 1.020 2.620 1.010 10.414 C 1.003 15.558,1.013 18.259,1.040 18.358 C 1.100 18.584,1.243 18.769,1.442 18.880 L 1.620 18.980 5.520 19.000 C 9.794 19.023,9.555 19.009,9.987 19.262 C 10.402 19.505,10.783 19.971,10.902 20.382 C 10.935 20.496,10.978 20.771,10.998 20.993 C 11.038 21.456,11.133 21.678,11.355 21.828 C 11.703 22.062,12.297 22.062,12.645 21.828 C 12.866 21.679,12.957 21.464,13.000 20.993 C 13.046 20.476,13.117 20.238,13.314 19.937 C 13.508 19.642,13.712 19.446,14.014 19.265 C 14.464 18.995,14.381 19.000,18.508 19.000 C 20.871 19.000,22.273 18.985,22.365 18.959 C 22.586 18.898,22.770 18.755,22.880 18.558 L 22.980 18.380 22.980 10.500 L 22.980 2.620 22.891 2.453 C 22.842 2.362,22.746 2.247,22.678 2.199 C 22.398 2.000,22.407 2.000,19.012 2.000 C 15.752 2.000,15.330 2.016,14.760 2.162 C 13.858 2.392,13.021 2.891,12.356 3.593 L 12.000 3.969 11.645 3.595 C 10.802 2.704,9.744 2.173,8.552 2.043 C 7.951 1.977,1.829 1.990,1.614 2.057 M8.861 4.122 C 9.821 4.423,10.574 5.176,10.879 6.139 L 10.980 6.460 10.991 11.990 C 10.997 15.032,10.992 17.520,10.980 17.520 C 10.968 17.520,10.855 17.469,10.729 17.406 C 10.379 17.231,10.028 17.122,9.605 17.058 C 9.294 17.012,8.622 17.000,6.110 17.000 L 3.000 17.000 3.000 10.498 L 3.000 3.996 5.770 4.009 L 8.540 4.022 8.861 4.122 M21.000 10.500 L 21.000 17.000 17.890 17.000 C 15.378 17.000,14.706 17.012,14.395 17.058 C 13.972 17.122,13.621 17.231,13.271 17.406 C 13.145 17.469,13.032 17.520,13.020 17.520 C 13.008 17.520,13.003 15.032,13.009 11.990 L 13.020 6.460 13.121 6.139 C 13.468 5.043,14.391 4.229,15.499 4.043 C 15.609 4.025,16.893 4.007,18.350 4.005 L 21.000 4.000 21.000 10.500 " stroke="none" fill-rule="evenodd" fill="black"></path></svg>