<svg fill="none" stroke="currentColor" stroke-linecap="round" stroke-linejoin="round" stroke-width="2" viewBox="0 0 24 24" xmlns="http://www.w3.org/2000/svg"><path d="M22.560 0.084 C 22.483 0.130,21.201 1.384,19.712 2.871 L 17.004 5.576 16.992 3.598 C 16.980 1.640,16.979 1.618,16.891 1.453 C 16.785 1.256,16.622 1.131,16.371 1.055 C 15.862 0.902,15.311 1.076,15.109 1.453 L 15.020 1.620 14.993 4.780 C 14.979 6.518,14.965 7.998,14.963 8.069 C 14.959 8.208,15.121 8.610,15.232 8.735 C 15.331 8.848,15.777 9.040,15.929 9.037 C 16.001 9.035,17.482 9.021,19.220 9.007 C 22.349 8.980,22.382 8.979,22.540 8.894 C 22.875 8.715,22.978 8.504,22.978 8.000 C 22.978 7.567,22.899 7.356,22.678 7.199 C 22.411 7.008,22.311 7.000,20.304 7.000 L 18.421 7.000 21.146 4.270 C 22.645 2.768,23.900 1.482,23.936 1.412 C 24.012 1.261,24.023 0.760,23.954 0.627 C 23.860 0.447,23.672 0.242,23.492 0.123 C 23.326 0.013,23.275 0.000,23.003 0.000 C 22.768 0.000,22.669 0.019,22.560 0.084 M3.620 1.042 C 2.674 1.206,1.858 1.810,1.438 2.660 C 1.099 3.346,1.052 3.865,1.222 5.040 C 1.618 7.780,2.497 10.293,3.873 12.620 C 5.516 15.399,7.668 17.698,10.216 19.398 C 12.407 20.861,14.498 21.803,16.860 22.395 C 18.062 22.696,19.429 22.920,20.062 22.920 C 21.148 22.920,22.216 22.233,22.698 21.225 C 22.982 20.631,22.980 20.649,22.980 18.380 C 22.980 16.353,22.979 16.338,22.886 16.040 C 22.586 15.079,21.875 14.338,20.953 14.026 C 20.850 13.991,20.544 13.926,20.273 13.880 C 19.319 13.721,19.020 13.646,18.000 13.311 C 17.425 13.122,17.345 13.106,16.898 13.089 C 16.492 13.074,16.360 13.085,16.058 13.160 C 15.412 13.322,15.073 13.532,14.393 14.191 L 13.924 14.647 13.732 14.517 C 12.774 13.868,12.172 13.374,11.399 12.601 C 10.708 11.910,10.268 11.387,9.720 10.604 L 9.351 10.078 9.808 9.608 C 10.577 8.815,10.812 8.376,10.915 7.540 C 10.973 7.068,10.917 6.712,10.661 5.922 C 10.396 5.107,10.279 4.635,10.143 3.835 C 10.088 3.514,10.013 3.163,9.977 3.055 C 9.721 2.295,9.176 1.671,8.460 1.318 C 7.859 1.022,7.887 1.025,5.740 1.016 C 4.684 1.011,3.730 1.023,3.620 1.042 M7.409 3.042 C 7.613 3.098,7.881 3.311,7.988 3.501 C 8.036 3.587,8.105 3.829,8.141 4.039 C 8.311 5.037,8.478 5.707,8.779 6.598 C 8.945 7.089,8.960 7.367,8.837 7.640 C 8.781 7.765,8.525 8.053,8.002 8.580 C 7.564 9.022,7.214 9.410,7.165 9.508 C 7.048 9.740,7.053 10.040,7.177 10.307 C 7.290 10.548,7.782 11.342,8.082 11.765 C 9.296 13.476,10.833 14.981,12.520 16.109 C 13.485 16.754,13.807 16.919,14.100 16.919 C 14.451 16.918,14.593 16.818,15.457 15.966 C 16.323 15.114,16.373 15.080,16.787 15.080 C 16.907 15.080,17.147 15.135,17.402 15.221 C 18.279 15.518,18.951 15.687,19.852 15.837 C 20.145 15.886,20.387 15.951,20.490 16.008 C 20.687 16.117,20.900 16.383,20.958 16.591 C 21.010 16.778,21.013 19.955,20.962 20.177 C 20.877 20.540,20.496 20.875,20.126 20.910 C 19.758 20.946,18.243 20.695,17.240 20.433 C 13.130 19.359,9.399 16.874,6.895 13.540 C 5.090 11.138,3.908 8.505,3.365 5.680 C 3.207 4.861,3.100 3.977,3.135 3.793 C 3.167 3.621,3.375 3.299,3.522 3.191 C 3.767 3.011,3.853 3.004,5.600 3.002 C 6.626 3.001,7.317 3.016,7.409 3.042 " stroke="none" fill-rule="evenodd" fill="black"></path></svg>