<svg fill="none" stroke="currentColor" stroke-linecap="round" stroke-linejoin="round" stroke-width="2" viewBox="0 0 24 24" xmlns="http://www.w3.org/2000/svg"><path d="M0.508 0.123 C 0.328 0.242,0.140 0.447,0.046 0.627 C -0.024 0.760,-0.012 1.261,0.065 1.412 C 0.100 1.482,0.796 2.210,1.612 3.028 L 3.094 4.516 3.047 4.673 C 2.986 4.878,2.980 12.297,3.041 12.801 C 3.221 14.292,3.739 15.640,4.663 17.020 C 5.935 18.922,8.135 20.893,10.680 22.410 C 11.379 22.827,11.691 22.971,11.941 22.992 C 12.197 23.013,12.280 22.984,12.820 22.687 C 14.349 21.847,15.628 20.921,17.014 19.650 L 17.648 19.069 20.054 21.470 C 21.377 22.791,22.518 23.900,22.588 23.936 C 22.671 23.977,22.820 24.000,23.011 24.000 C 23.274 24.000,23.327 23.986,23.492 23.877 C 23.672 23.758,23.860 23.553,23.954 23.373 C 23.979 23.325,24.000 23.152,24.000 22.989 C 24.000 22.729,23.986 22.671,23.886 22.522 C 23.733 22.294,1.708 0.268,1.483 0.118 C 1.326 0.013,1.273 0.000,1.000 0.000 C 0.725 0.000,0.675 0.013,0.508 0.123 M11.700 1.048 C 10.879 1.337,8.339 2.310,8.209 2.385 C 7.949 2.536,7.820 2.759,7.820 3.057 C 7.821 3.483,8.046 3.930,8.349 4.108 C 8.664 4.292,8.840 4.252,10.527 3.619 L 11.995 3.068 15.499 4.382 L 19.004 5.696 18.989 9.198 C 18.973 13.012,18.984 12.811,18.742 13.680 C 18.666 13.953,18.663 14.281,18.734 14.452 C 18.916 14.887,19.749 15.158,20.192 14.926 C 20.297 14.871,20.408 14.767,20.476 14.660 C 20.603 14.460,20.766 13.919,20.890 13.288 C 20.971 12.874,20.975 12.730,20.989 8.845 C 21.005 4.300,21.023 4.572,20.697 4.286 C 20.537 4.145,20.103 3.974,16.346 2.565 C 11.991 0.932,12.012 0.939,11.700 1.048 M15.811 18.038 C 15.081 18.741,14.157 19.481,13.280 20.066 C 12.688 20.461,12.062 20.840,12.002 20.840 C 11.869 20.840,10.354 19.847,9.607 19.269 C 7.070 17.309,5.574 15.266,5.110 13.126 C 5.030 12.756,5.026 12.607,5.012 9.580 L 4.997 6.420 10.609 12.033 L 16.220 17.645 15.811 18.038 " stroke="none" fill-rule="evenodd" fill="black"></path></svg>