<svg fill="none" stroke="currentColor" stroke-linecap="round" stroke-linejoin="round" stroke-width="2" viewBox="0 0 24 24" xmlns="http://www.w3.org/2000/svg"><path d="M11.530 2.085 C 11.392 2.152,11.248 2.254,11.210 2.312 C 11.171 2.370,10.012 3.552,8.634 4.939 C 6.897 6.687,6.101 7.514,6.040 7.637 C 5.863 7.990,5.952 8.354,6.299 8.701 C 6.646 9.048,7.011 9.137,7.363 8.960 C 7.483 8.900,8.092 8.321,9.270 7.147 L 11.000 5.422 11.000 10.321 C 11.000 13.480,11.015 15.271,11.041 15.365 C 11.148 15.750,11.437 15.962,11.896 15.991 C 12.381 16.022,12.699 15.882,12.880 15.558 L 12.980 15.380 12.991 10.402 L 13.002 5.424 14.731 7.147 C 15.908 8.321,16.517 8.900,16.637 8.960 C 16.989 9.137,17.354 9.048,17.701 8.701 C 18.048 8.354,18.137 7.990,17.960 7.637 C 17.899 7.514,17.103 6.687,15.366 4.939 C 13.988 3.552,12.829 2.370,12.790 2.312 C 12.752 2.254,12.604 2.151,12.460 2.083 C 12.113 1.919,11.873 1.920,11.530 2.085 M2.614 14.057 C 2.377 14.131,2.212 14.261,2.109 14.453 L 2.020 14.620 2.020 17.080 L 2.020 19.540 2.114 19.840 C 2.298 20.430,2.609 20.893,3.109 21.321 C 3.391 21.563,3.760 21.762,4.160 21.886 L 4.460 21.980 12.000 21.980 L 19.540 21.980 19.840 21.886 C 20.827 21.578,21.578 20.827,21.886 19.840 L 21.980 19.540 21.980 17.080 L 21.980 14.620 21.889 14.450 C 21.724 14.140,21.329 13.970,20.874 14.011 C 20.439 14.051,20.141 14.274,20.041 14.635 C 20.016 14.724,20.000 15.618,20.000 16.944 C 20.000 19.292,19.997 19.332,19.779 19.618 C 19.718 19.698,19.585 19.813,19.484 19.872 L 19.300 19.980 12.000 19.980 L 4.700 19.980 4.516 19.872 C 4.328 19.761,4.158 19.572,4.070 19.373 C 4.033 19.289,4.015 18.673,4.000 16.940 C 3.980 14.636,3.979 14.619,3.891 14.453 C 3.842 14.362,3.746 14.247,3.678 14.199 C 3.414 14.010,2.957 13.950,2.614 14.057 " stroke="none" fill-rule="evenodd" fill="black"></path></svg>