<svg fill="none" stroke="currentColor" stroke-linecap="round" stroke-linejoin="round" stroke-width="2" viewBox="0 0 24 24" xmlns="http://www.w3.org/2000/svg"><path d="M0.508 0.123 C 0.328 0.242,0.140 0.447,0.046 0.627 C -0.024 0.760,-0.012 1.261,0.064 1.412 C 0.100 1.482,1.084 2.498,2.252 3.669 C 3.420 4.840,4.368 5.805,4.358 5.814 C 4.348 5.823,4.226 5.888,4.087 5.957 C 3.100 6.452,1.599 7.488,0.815 8.214 C 0.247 8.740,0.217 9.159,0.707 9.683 C 0.946 9.939,1.157 10.049,1.406 10.049 C 1.656 10.049,1.855 9.944,2.280 9.585 C 3.274 8.745,4.164 8.157,5.294 7.593 L 5.881 7.301 7.041 8.461 C 7.967 9.386,8.187 9.626,8.130 9.647 C 6.516 10.276,5.699 10.726,4.614 11.585 C 4.096 11.995,3.956 12.194,3.954 12.522 C 3.950 13.012,4.503 13.601,4.965 13.599 C 5.208 13.598,5.427 13.488,5.847 13.156 C 6.996 12.251,8.328 11.603,9.705 11.280 C 9.828 11.251,9.863 11.282,11.215 12.635 L 12.599 14.020 11.930 14.024 C 10.824 14.031,9.921 14.237,8.980 14.697 C 8.447 14.957,7.865 15.334,7.694 15.530 C 7.365 15.905,7.431 16.415,7.867 16.856 C 8.273 17.269,8.615 17.264,9.243 16.838 C 9.620 16.582,10.270 16.288,10.700 16.179 C 12.165 15.807,13.527 16.034,14.799 16.861 C 15.154 17.092,15.318 17.156,15.559 17.158 L 15.739 17.160 19.099 20.516 C 20.948 22.362,22.518 23.901,22.588 23.936 C 22.671 23.977,22.820 24.000,23.011 24.000 C 23.274 24.000,23.327 23.986,23.492 23.877 C 23.672 23.758,23.860 23.553,23.954 23.373 C 24.023 23.241,24.012 22.739,23.936 22.588 C 23.886 22.488,19.182 17.745,10.848 9.392 C 7.546 6.083,1.604 0.199,1.479 0.115 C 1.328 0.013,1.273 -0.000,1.001 -0.000 C 0.725 -0.000,0.675 0.012,0.508 0.123 M10.831 4.039 C 10.287 4.082,10.019 4.193,9.853 4.444 C 9.748 4.602,9.740 4.642,9.740 5.017 C 9.740 5.441,9.783 5.583,9.975 5.794 C 10.179 6.019,10.181 6.019,11.740 6.023 C 12.838 6.026,13.304 6.042,13.700 6.094 C 16.774 6.491,19.398 7.633,21.725 9.587 C 22.162 9.954,22.342 10.049,22.598 10.049 C 22.843 10.049,23.055 9.937,23.293 9.683 C 23.715 9.232,23.747 8.822,23.393 8.418 C 23.107 8.093,22.091 7.295,21.316 6.788 C 19.073 5.320,16.597 4.430,13.840 4.101 C 13.211 4.025,11.461 3.990,10.831 4.039 M16.260 10.113 C 15.927 10.327,15.700 10.752,15.700 11.163 C 15.700 11.580,15.825 11.710,16.660 12.167 C 17.209 12.467,17.652 12.759,18.138 13.144 C 18.575 13.489,18.790 13.598,19.035 13.599 C 19.499 13.601,20.050 13.012,20.046 12.518 C 20.043 12.155,19.862 11.934,19.096 11.357 C 18.610 10.992,17.961 10.584,17.408 10.296 C 16.997 10.083,16.929 10.060,16.668 10.049 C 16.437 10.038,16.356 10.051,16.260 10.113 M11.614 19.055 C 11.220 19.184,11.039 19.437,11.009 19.900 C 10.978 20.381,11.119 20.699,11.442 20.880 C 11.597 20.967,11.669 20.980,12.000 20.980 C 12.312 20.980,12.408 20.964,12.540 20.894 C 12.866 20.718,13.000 20.459,13.000 20.000 C 13.000 19.357,12.713 19.048,12.083 19.016 C 11.893 19.006,11.718 19.021,11.614 19.055 " stroke="none" fill-rule="evenodd" fill="black"></path></svg>