<svg fill="none" stroke="currentColor" stroke-linecap="round" stroke-linejoin="round" stroke-width="2" viewBox="0 0 24 24" xmlns="http://www.w3.org/2000/svg"><path d="M0.508 0.123 C 0.328 0.242,0.140 0.447,0.046 0.627 C -0.023 0.759,-0.012 1.261,0.064 1.412 C 0.100 1.482,1.595 3.008,3.387 4.803 L 6.645 8.066 4.378 10.783 C 3.124 12.285,2.076 13.577,2.032 13.673 C 1.836 14.105,2.030 14.586,2.515 14.872 L 2.700 14.980 6.782 14.991 L 10.865 15.001 10.431 18.451 C 9.956 22.218,9.949 22.319,10.138 22.604 C 10.275 22.812,10.588 22.962,10.943 22.990 C 11.163 23.008,11.227 22.996,11.417 22.903 C 11.623 22.803,11.785 22.618,13.849 20.140 L 16.060 17.484 19.260 20.678 C 21.020 22.434,22.518 23.900,22.588 23.936 C 22.671 23.977,22.820 24.000,23.011 24.000 C 23.274 24.000,23.327 23.986,23.492 23.877 C 23.672 23.758,23.860 23.553,23.954 23.373 C 23.979 23.325,24.000 23.152,24.000 22.989 C 24.000 22.728,23.986 22.673,23.882 22.517 C 23.720 22.275,1.572 0.144,1.412 0.064 C 1.329 0.023,1.179 0.000,0.989 0.000 C 0.726 0.000,0.673 0.014,0.508 0.123 M12.665 1.056 C 12.580 1.088,12.450 1.165,12.376 1.227 C 12.138 1.428,9.716 4.371,9.616 4.580 C 9.561 4.695,9.521 4.854,9.520 4.955 C 9.519 5.425,10.095 5.960,10.602 5.960 C 10.875 5.960,11.090 5.837,11.376 5.516 L 11.568 5.300 11.547 5.500 C 11.535 5.610,11.494 5.979,11.457 6.320 C 11.401 6.824,11.397 6.972,11.436 7.112 C 11.502 7.348,11.720 7.579,11.951 7.658 C 12.631 7.889,13.183 7.688,13.338 7.152 C 13.437 6.810,14.009 2.102,13.987 1.809 C 13.963 1.469,13.829 1.267,13.541 1.135 C 13.272 1.012,12.879 0.977,12.665 1.056 M15.340 9.039 C 14.874 9.160,14.674 9.447,14.672 9.997 C 14.670 10.336,14.741 10.552,14.912 10.735 C 15.141 10.979,15.134 10.978,17.071 11.000 L 18.843 11.020 18.263 11.717 C 17.944 12.100,17.652 12.478,17.615 12.555 C 17.437 12.931,17.518 13.273,17.861 13.597 C 18.338 14.048,18.768 14.079,19.190 13.693 C 19.470 13.437,21.884 10.512,21.968 10.327 C 22.164 9.895,21.970 9.414,21.485 9.128 L 21.300 9.020 18.380 9.014 C 16.774 9.010,15.406 9.021,15.340 9.039 M9.960 12.990 C 9.080 12.996,7.638 12.996,6.755 12.990 L 5.150 12.980 6.605 11.232 L 8.060 9.484 9.810 11.232 L 11.560 12.980 9.960 12.990 M14.608 16.101 C 14.496 16.287,12.458 18.677,12.449 18.633 C 12.439 18.584,12.876 14.975,12.944 14.545 L 12.969 14.390 13.802 15.222 C 14.307 15.727,14.625 16.073,14.608 16.101 " stroke="none" fill-rule="evenodd" fill="black"></path></svg>